<svg xmlns="http://www.w3.org/2000/svg" id="be32c85c-9388-4a2b-a4e5-271574a5b9b2" width="888" height="651.932" data-name="Layer 1" viewBox="0 0 888 651.932"><title>design_notes</title><ellipse cx="96.679" cy="631.793" fill="#e6e6e6" rx="96.348" ry="20.007"/><ellipse cx="55.079" cy="143.651" fill="#2f2e41" rx="33.216" ry="31.114"/><path fill="#ffb8b8" d="M307.78357,461.51368l8.40906,11.77269s40.36349,8.40906,25.22718,21.02265-36.99987-11.77268-36.99987-11.77268L292.64725,467.4Z" transform="translate(-156 -124.03413)"/><path fill="#e6e6e6" d="M264.05644,327.8096s10.93178,0,13.4545,15.13631,5.04544,65.59068,5.04544,65.59068,35.31806,46.24984,29.43172,52.13618S299.3745,477.4909,295.17,475.80909s-40.36349-51.29528-40.36349-51.29528Z" transform="translate(-156 -124.03413)"/><path fill="#ffb8b8" d="M230.4202,284.92338s.8409,32.79534,10.93178,34.47716,6.72725,12.61359,6.72725,12.61359-32.79534,19.34084-54.65891,0l-4.20453-10.09087s15.13632-10.93178,8.40907-26.0681Z" transform="translate(-156 -124.03413)"/><path fill="#2f2e41" d="M286.76091,486.74087s49.61347,92.49968,31.11353,121.09049S271.6246,695.2856,267.42007,695.2856s-27.74991-11.77269-26.06809-19.34084,26.909-63.90887,33.63624-68.95431,3.36363-18.49994,2.52272-19.34084-28.59081-45.40894-28.59081-45.40894.84091,70.63612-2.52272,81.5679.84091,89.13606-3.36362,92.49968-23.54537,9.25-26.909,4.20453-13.4545-81.5679-6.72725-99.22693L196.784,500.19537Z" transform="translate(-156 -124.03413)"/><path fill="#2f2e41" d="M241.352,711.26282l21.02265,38.68168s30.27262,21.86356,9.25,25.22719-33.63625-5.04544-33.63625-5.04544l-18.49993-13.4545V717.99007Z" transform="translate(-156 -124.03413)"/><path fill="#2f2e41" d="M269.94279,689.39926,259.011,715.46735s-4.20453,10.93178,0,13.4545,15.97721,17.659,8.40906,19.34084a24.638,24.638,0,0,1-4.62109.45938,46.72573,46.72573,0,0,1-33.97067-13.824l-6.81718-6.81718s23.352-53.7745,23.02825-53.37579S269.94279,689.39926,269.94279,689.39926Z" transform="translate(-156 -124.03413)"/><circle cx="53.398" cy="152.48" r="28.591" fill="#ffb8b8"/><path fill="#e6e6e6" d="M192.99987,316.45737l8.82952,8.82951s26.909,10.09087,39.52259,0c0,0-4.625-9.67042-4.625-8.82951s36.57942,6.30679,39.943,21.4431-2.52272,41.20441-2.52272,41.20441,23.54537,110.99961,14.2954,113.52233-95.8633,23.54537-95.0224,7.56816-6.72724-81.5679-6.72724-81.5679l-29.43172-56.34072s4.20453-18.49993,14.2954-24.38628S192.99987,316.45737,192.99987,316.45737Z" transform="translate(-156 -124.03413)"/><path fill="#ffb8b8" d="M230.4202,480.85452l10.93178,6.72725s42.04531,28.59081,20.18175,33.63625-34.47716-20.18175-34.47716-20.18175l-8.40906-10.09087Z" transform="translate(-156 -124.03413)"/><path d="M168.19314,357.24131l-7.56816,7.56816s-5.04543,70.63612,5.04544,84.93152,56.34071,52.97709,58.86343,50.45438,18.49994-15.13632,15.13631-16.81813-48.08542-48.41048-48.08542-48.41048l3.5174-65.11185Z" opacity=".1" transform="translate(-156 -124.03413)"/><path fill="#e6e6e6" d="M164.82951,354.7186l-7.56815,7.56815s-5.04544,70.63612,5.04544,84.93153,56.34071,52.97709,58.86343,50.45437,18.49993-15.13631,15.13631-16.81813S188.22111,432.444,188.22111,432.444l3.5174-65.11185Z" transform="translate(-156 -124.03413)"/><path fill="#2f2e41" d="M221.22207,235.90286s9.71878-3.5341,22.97166,3.97587l-7.0682,1.76705s10.6023.88352,11.92759,15.01993h-4.85939s3.09234,12.36935,0,15.90345l-1.98793-3.755L236.46288,280.3l-1.32528-5.74291-2.65058.88353-1.76705-9.277s-4.41763,6.62644-7.95173,7.0682v-5.74291s-9.71877,11.04406-12.81111,10.6023l4.41762-6.18467-6.18467,1.32528,2.65057-4.41762L194.9372,273.2318l3.5341-4.41762-11.04406,3.5341-5.30115,2.20881s-7.51-17.22874,3.09233-29.15633S211.28242,230.82259,221.22207,235.90286Z" transform="translate(-156 -124.03413)"/><rect width="643.862" height="412.358" x="221.885" y="68.991" fill="#e6e6e6"/><rect width="607.039" height="336.243" x="240.296" y="120.711" fill="#fff"/><rect width="643.862" height="27.354" x="221.61" y="68.626" fill="#000"/><circle cx="241.937" cy="82.611" r="5.07" fill="#fff"/><circle cx="261.181" cy="82.611" r="5.07" fill="#fff"/><circle cx="280.425" cy="82.611" r="5.07" fill="#fff"/><rect width="155.981" height="266.467" x="295.454" y="155.599" fill="#e6e6e6"/><rect width="129.984" height="73.348" x="478.36" y="155.599" fill="#000"/><rect width="129.984" height="78.919" x="478.36" y="249.373" fill="#e6e6e6"/><rect width="129.984" height="73.348" x="478.36" y="348.718" fill="#e6e6e6"/><rect width="155.981" height="116.125" x="636.198" y="155.599" fill="#e6e6e6"/><rect width="155.981" height="116.125" x="636.198" y="305.941" fill="#000"/><polygon fill="#3f3d56" points="544.691 188.755 542.655 188.214 587.089 21.06 844.827 21.06 844.827 23.166 588.708 23.166 544.691 188.755"/><path fill="#3f3d56" d="M1021.88725,168.25962A22.11275,22.11275,0,1,1,1044,146.14687,22.13792,22.13792,0,0,1,1021.88725,168.25962Zm0-42.11952a20.00678,20.00678,0,1,0,20.00677,20.00677A20.02953,20.02953,0,0,0,1021.88725,126.1401Z" transform="translate(-156 -124.03413)"/><circle cx="865.887" cy="22.113" r="8.424" fill="#000"/><polygon fill="#3f3d56" points="672.947 530.706 415.208 530.706 415.208 528.6 671.328 528.6 715.345 363.01 717.381 363.551 672.947 530.706"/><path fill="#3f3d56" d="M550.1486,675.79987a22.11275,22.11275,0,1,1,22.11275-22.11275A22.13792,22.13792,0,0,1,550.1486,675.79987Zm0-42.11952a20.00678,20.00678,0,1,0,20.00677,20.00677A20.02953,20.02953,0,0,0,550.1486,633.68035Z" transform="translate(-156 -124.03413)"/><circle cx="394.149" cy="529.653" r="8.424" fill="#000"/></svg>