<svg xmlns="http://www.w3.org/2000/svg" id="f871edae-d68c-46d4-8324-c4853318dddd" width="888.006" height="552.781" data-name="Layer 1" viewBox="0 0 888.006 552.781"><title>online_articles</title><rect width="182" height="332" x="615.007" y="108" fill="#e6e6e6"/><path fill="#fff" d="M788.00369,596.60957h148v-298h-148Z" transform="translate(-155.99682 -173.60957)"/><rect width="43.223" height="4.014" x="688.874" y="188.915" fill="#e6e6e6"/><rect width="75.335" height="4.014" x="688.874" y="202.8" fill="#e6e6e6"/><rect width="75.261" height="4.014" x="688.874" y="216.685" fill="#e6e6e6"/><rect width="32.111" height="32.111" x="647.805" y="188.974" fill="#e6e6e6"/><rect width="43.223" height="4.014" x="688.874" y="257.915" fill="#e6e6e6"/><rect width="75.335" height="4.014" x="688.874" y="271.8" fill="#e6e6e6"/><rect width="75.261" height="4.014" x="688.874" y="285.685" fill="#e6e6e6"/><rect width="32.111" height="32.111" x="647.805" y="257.974" fill="#e6e6e6"/><rect width="43.223" height="4.014" x="688.874" y="326.915" fill="#e6e6e6"/><rect width="75.335" height="4.014" x="688.874" y="340.8" fill="#e6e6e6"/><rect width="75.261" height="4.014" x="688.874" y="354.685" fill="#e6e6e6"/><rect width="32.111" height="32.111" x="647.805" y="326.974" fill="#e6e6e6"/><rect width="182" height="332" x="107.007" y="108" fill="#e6e6e6"/><path fill="#fff" d="M280.00369,596.60957h148v-298h-148Z" transform="translate(-155.99682 -173.60957)"/><rect width="43.223" height="4.014" x="180.874" y="188.915" fill="#e6e6e6"/><rect width="75.335" height="4.014" x="180.874" y="202.8" fill="#e6e6e6"/><rect width="75.261" height="4.014" x="180.874" y="216.685" fill="#e6e6e6"/><rect width="32.111" height="32.111" x="139.805" y="188.974" fill="#e6e6e6"/><rect width="43.223" height="4.014" x="180.874" y="257.915" fill="#e6e6e6"/><rect width="75.335" height="4.014" x="180.874" y="271.8" fill="#e6e6e6"/><rect width="75.261" height="4.014" x="180.874" y="285.685" fill="#e6e6e6"/><rect width="32.111" height="32.111" x="139.805" y="257.974" fill="#e6e6e6"/><rect width="43.223" height="4.014" x="180.874" y="326.915" fill="#e6e6e6"/><rect width="75.335" height="4.014" x="180.874" y="340.8" fill="#e6e6e6"/><rect width="75.261" height="4.014" x="180.874" y="354.685" fill="#e6e6e6"/><rect width="32.111" height="32.111" x="139.805" y="326.974" fill="#e6e6e6"/><ellipse cx="444.003" cy="449" fill="#e6e6e6" rx="444.003" ry="18"/><rect width="247.783" height="452" x="328.115" fill="#3f3d56"/><path fill="#fff" d="M494.81971,614.10957h226.368v-429h-226.368Z" transform="translate(-155.99682 -173.60957)"/><rect width="58.846" height="5.465" x="428.681" y="110.161" fill="#000"/><rect width="102.564" height="5.465" x="428.681" y="129.065" fill="#e6e6e6"/><rect width="102.463" height="5.465" x="428.681" y="147.969" fill="#e6e6e6"/><rect width="43.718" height="43.718" x="372.769" y="110.242" fill="#000"/><rect width="58.846" height="5.465" x="428.681" y="204.101" fill="#000"/><rect width="102.564" height="5.465" x="428.681" y="223.005" fill="#e6e6e6"/><rect width="102.463" height="5.465" x="428.681" y="241.909" fill="#e6e6e6"/><rect width="43.718" height="43.718" x="372.769" y="204.182" fill="#000"/><rect width="58.846" height="5.465" x="428.681" y="298.04" fill="#000"/><rect width="102.564" height="5.465" x="428.681" y="316.945" fill="#e6e6e6"/><rect width="102.463" height="5.465" x="428.681" y="335.849" fill="#e6e6e6"/><rect width="43.718" height="43.718" x="372.769" y="298.121" fill="#000"/><path fill="#ffb8b8" d="M517.50369,494.10957l-3,13s1,30-7,27-6-29-6-29l7-13Z" transform="translate(-155.99682 -173.60957)"/><circle cx="317.007" cy="158" r="20" fill="#ffb8b8"/><path fill="#ffb8b8" d="M457.50369,337.10957l-2,29,25,3s0-24,2-27S457.50369,337.10957,457.50369,337.10957Z" transform="translate(-155.99682 -173.60957)"/><path fill="#575a89" d="M513.00369,374.60957,480.621,360.89614s-15.469-11.93614-24.54315-3.11135l-4.07412,5.82478s-36,14-36,25l14,55s-8,31,4,33l65,6s9-11,1-25l3-33Z" transform="translate(-155.99682 -173.60957)"/><path fill="#575a89" d="M491.00369,375.60957l22-1s7,2,12,21,6,50,6,50l-12,56-15-2,6-54-10-36Z" transform="translate(-155.99682 -173.60957)"/><path fill="#575a89" d="M428.00369,381.60957l-10.84646,3.378s-9.15354,13.622-9.15354,20.622-4,60-4,60l26,43,8-21-16-27,13-33Z" transform="translate(-155.99682 -173.60957)"/><path fill="#2f2e41" d="M502.00369,480.60957l-71.8968-6.32585s-7.1032,45.32585-6.1032,63.32585,2,46,2,46l-8,122,31-4,4-101,13-55,15,70,10,90,27-3-9-109S517.00369,495.60957,502.00369,480.60957Z" transform="translate(-155.99682 -173.60957)"/><path fill="#2f2e41" d="M512.00369,697.60957l9,3s19-5,14,8-19,11-19,11-17,13-24,3l4-21Z" transform="translate(-155.99682 -173.60957)"/><path fill="#2f2e41" d="M439.00369,697.60957l9,3s19-5,14,8-19,11-19,11-17,13-24,3l4-21Z" transform="translate(-155.99682 -173.60957)"/><path fill="#2f2e41" d="M457.50369,349.10957s-21-15-10-33c7.63117-12.48738,23.44411-11.49893,32.414-9.72226a15.154,15.154,0,0,1,11.086,8.72226c1.5,3.5,1.5,7-4.5,7-12,0-6,9-6,9s-8,2-6,9S457.50369,349.10957,457.50369,349.10957Z" transform="translate(-155.99682 -173.60957)"/></svg>